<svg width="25" height="20" viewBox="0 0 20 20" fill="none" xmlns="http://www.w3.org/2000/svg">
<path d="M7.61905 1.90476C9.71429 1.90476 11.4286 3.61905 11.4286 5.71429C11.4286 7.71429 9.42857 10.9524 7.61905 13.2381C5.80952 10.8571 3.80952 7.71429 3.80952 5.71429C3.80952 3.61905 5.52381 1.90476 7.61905 1.90476ZM7.61905 0C4.47619 0 1.90476 2.57143 1.90476 5.71429C1.90476 10 7.61905 16.1905 7.61905 16.1905C7.61905 16.1905 13.3333 9.90476 13.3333 5.71429C13.3333 2.57143 10.7619 0 7.61905 0ZM7.61905 3.80952C6.57143 3.80952 5.71429 4.66667 5.71429 5.71429C5.71429 6.7619 6.57143 7.61905 7.61905 7.61905C8.66667 7.61905 9.52381 6.7619 9.52381 5.71429C9.52381 4.66667 8.66667 3.80952 7.61905 3.80952ZM15.2381 16.1905C15.2381 18.2857 11.8095 20 7.61905 20C3.42857 20 0 18.2857 0 16.1905C0 14.9524 1.14286 13.9048 2.95238 13.1429L3.52381 14C2.57143 14.4762 1.90476 15.0476 1.90476 15.7143C1.90476 17.0476 4.47619 18.0952 7.61905 18.0952C10.7619 18.0952 13.3333 17.0476 13.3333 15.7143C13.3333 15.0476 12.6667 14.4762 11.619 14L12.1905 13.1429C14.0952 13.9048 15.2381 14.9524 15.2381 16.1905Z" fill="#666666"/>
</svg>
