<svg width="22" height="20" viewBox="0 0 22 20" fill="none" xmlns="http://www.w3.org/2000/svg">
    <path
        d="M6.31579 4.21053V2.10526C6.31579 1.52632 6.52211 1.03053 6.93474 0.617895C7.34667 0.205965 7.84211 0 8.42105 0H12.6316C13.2105 0 13.7063 0.205965 14.1189 0.617895C14.5309 1.03053 14.7368 1.52632 14.7368 2.10526V4.21053H18.9474C19.5263 4.21053 20.0221 4.41684 20.4347 4.82947C20.8467 5.2414 21.0526 5.73684 21.0526 6.31579V17.8947C21.0526 18.4737 20.8467 18.9695 20.4347 19.3821C20.0221 19.794 19.5263 20 18.9474 20H2.10526C1.52632 20 1.03088 19.794 0.618947 19.3821C0.206316 18.9695 0 18.4737 0 17.8947V6.31579C0 5.73684 0.206316 5.2414 0.618947 4.82947C1.03088 4.41684 1.52632 4.21053 2.10526 4.21053H6.31579ZM8.42105 4.21053H12.6316V2.10526H8.42105V4.21053ZM18.9474 13.6842H13.6842V14.7368C13.6842 15.0351 13.5835 15.2849 13.3821 15.4863C13.18 15.6884 12.9298 15.7895 12.6316 15.7895H8.42105C8.12281 15.7895 7.87298 15.6884 7.67158 15.4863C7.46947 15.2849 7.36842 15.0351 7.36842 14.7368V13.6842H2.10526V17.8947H18.9474V13.6842ZM9.47368 13.6842H11.5789V11.5789H9.47368V13.6842ZM2.10526 11.5789H7.36842V10.5263C7.36842 10.2281 7.46947 9.97789 7.67158 9.77579C7.87298 9.57439 8.12281 9.47368 8.42105 9.47368H12.6316C12.9298 9.47368 13.18 9.57439 13.3821 9.77579C13.5835 9.97789 13.6842 10.2281 13.6842 10.5263V11.5789H18.9474V6.31579H2.10526V11.5789Z"
        fill="#666666" />
</svg>
