<svg width="56" height="50" viewBox="0 0 56 50" fill="none" xmlns="http://www.w3.org/2000/svg">
<path d="M30.5556 50L36.1111 47.2222L41.6667 50V30.5556H30.5556M41.6667 16.6667V11.1111L36.1111 13.8889L30.5556 11.1111V16.6667L25 19.4444L30.5556 22.2222V27.7778L36.1111 25L41.6667 27.7778V22.2222L47.2222 19.4444M50 0H5.55556C4.08213 0 2.66905 0.585316 1.62718 1.62718C0.585316 2.66905 0 4.08213 0 5.55556V33.3333C0 34.8068 0.585316 36.2198 1.62718 37.2617C2.66905 38.3036 4.08213 38.8889 5.55556 38.8889H25V33.3333H5.55556V5.55556H50V33.3333H47.2222V38.8889H50C51.4734 38.8889 52.8865 38.3036 53.9284 37.2617C54.9702 36.2198 55.5556 34.8068 55.5556 33.3333V5.55556C55.5556 4.08213 54.9702 2.66905 53.9284 1.62718C52.8865 0.585316 51.4734 0 50 0ZM25 13.8889H8.33333V8.33333H25M19.4444 22.2222H8.33333V16.6667H19.4444M25 30.5556H8.33333V25H25V30.5556Z" fill="#D1349B"/>
</svg>
