<svg width="14" height="15" viewBox="0 0 14 15" fill="none" xmlns="http://www.w3.org/2000/svg">
<path d="M9.54545 5.45455C13.6364 5.45455 13.6364 8.18182 13.6364 8.18182V9.54545H9.54545V8.18182C9.54545 8.18182 9.54545 7.02955 8.76136 6C8.64546 5.84318 8.50227 5.69318 8.35227 5.55C8.70682 5.49545 9.09546 5.45455 9.54545 5.45455ZM0 8.18182C0 8.18182 0 5.45455 4.09091 5.45455C8.18182 5.45455 8.18182 8.18182 8.18182 8.18182V9.54545H0V8.18182ZM4.77273 10.9091V12.2727H8.86364V10.9091L10.9091 12.9545L8.86364 15V13.6364H4.77273V15L2.72727 12.9545L4.77273 10.9091ZM4.09091 0C2.95909 0 2.04545 0.913636 2.04545 2.04545C2.04545 3.17727 2.95909 4.09091 4.09091 4.09091C5.22273 4.09091 6.13636 3.17727 6.13636 2.04545C6.13636 0.913636 5.22273 0 4.09091 0ZM9.54545 0C8.41364 0 7.5 0.913636 7.5 2.04545C7.5 3.17727 8.41364 4.09091 9.54545 4.09091C10.6773 4.09091 11.5909 3.17727 11.5909 2.04545C11.5909 0.913636 10.6773 0 9.54545 0Z" fill="#D1349B"/>
</svg>
