<svg width="27" height="20" viewBox="0 0 27 20" fill="none" xmlns="http://www.w3.org/2000/svg">
<path d="M25 0H1.66667C1.22464 0 0.800716 0.175595 0.488155 0.488155C0.175595 0.800716 0 1.22464 0 1.66667V18.3333C0 18.7754 0.175595 19.1993 0.488155 19.5118C0.800716 19.8244 1.22464 20 1.66667 20H25C25.442 20 25.866 19.8244 26.1785 19.5118C26.4911 19.1993 26.6667 18.7754 26.6667 18.3333V1.66667C26.6667 1.22464 26.4911 0.800716 26.1785 0.488155C25.866 0.175595 25.442 0 25 0ZM25 18.3333H1.66667V1.66667H25V18.3333Z" fill="#666666"/>
<path d="M5.83333 6.66667H20.8333C21.0543 6.66667 21.2663 6.57887 21.4226 6.42259C21.5789 6.26631 21.6667 6.05435 21.6667 5.83333C21.6667 5.61232 21.5789 5.40036 21.4226 5.24408C21.2663 5.0878 21.0543 5 20.8333 5H5.83333C5.61232 5 5.40036 5.0878 5.24408 5.24408C5.0878 5.40036 5 5.61232 5 5.83333C5 6.05435 5.0878 6.26631 5.24408 6.42259C5.40036 6.57887 5.61232 6.66667 5.83333 6.66667Z" fill="#666666"/>
<path d="M5.83333 10H20.8333C21.0543 10 21.2663 9.91221 21.4226 9.75593C21.5789 9.59965 21.6667 9.38769 21.6667 9.16668C21.6667 8.94566 21.5789 8.7337 21.4226 8.57742C21.2663 8.42114 21.0543 8.33334 20.8333 8.33334H5.83333C5.61232 8.33334 5.40036 8.42114 5.24408 8.57742C5.0878 8.7337 5 8.94566 5 9.16668C5 9.38769 5.0878 9.59965 5.24408 9.75593C5.40036 9.91221 5.61232 10 5.83333 10Z" fill="#666666"/>
<path d="M5.83333 13.3333H14.1667C14.3877 13.3333 14.5996 13.2455 14.7559 13.0892C14.9122 12.933 15 12.721 15 12.5C15 12.279 14.9122 12.067 14.7559 11.9107C14.5996 11.7545 14.3877 11.6667 14.1667 11.6667H5.83333C5.61232 11.6667 5.40036 11.7545 5.24408 11.9107C5.0878 12.067 5 12.279 5 12.5C5 12.721 5.0878 12.933 5.24408 13.0892C5.40036 13.2455 5.61232 13.3333 5.83333 13.3333Z" fill="#666666"/>
</svg>
