<svg width="7" height="18" viewBox="0 0 7 25" fill="none" xmlns="http://www.w3.org/2000/svg">
<path d="M3.125 18.75C3.9538 18.75 4.74866 19.0792 5.33471 19.6653C5.92076 20.2513 6.25 21.0462 6.25 21.875C6.25 22.7038 5.92076 23.4987 5.33471 24.0847C4.74866 24.6708 3.9538 25 3.125 25C2.2962 25 1.50134 24.6708 0.915292 24.0847C0.329241 23.4987 0 22.7038 0 21.875C0 21.0462 0.329241 20.2513 0.915292 19.6653C1.50134 19.0792 2.2962 18.75 3.125 18.75ZM3.125 9.375C3.9538 9.375 4.74866 9.70424 5.33471 10.2903C5.92076 10.8763 6.25 11.6712 6.25 12.5C6.25 13.3288 5.92076 14.1237 5.33471 14.7097C4.74866 15.2958 3.9538 15.625 3.125 15.625C2.2962 15.625 1.50134 15.2958 0.915292 14.7097C0.329241 14.1237 0 13.3288 0 12.5C0 11.6712 0.329241 10.8763 0.915292 10.2903C1.50134 9.70424 2.2962 9.375 3.125 9.375ZM3.125 0C3.9538 0 4.74866 0.32924 5.33471 0.915291C5.92076 1.50134 6.25 2.2962 6.25 3.125C6.25 3.9538 5.92076 4.74866 5.33471 5.33471C4.74866 5.92076 3.9538 6.25 3.125 6.25C2.2962 6.25 1.50134 5.92076 0.915292 5.33471C0.329241 4.74866 0 3.9538 0 3.125C0 2.2962 0.329241 1.50134 0.915292 0.915291C1.50134 0.32924 2.2962 0 3.125 0Z" fill="white"/>
</svg>
