<svg width="14" height="15" viewBox="0 0 19 20" fill="none" xmlns="http://www.w3.org/2000/svg">
<path d="M9.09091 0C5.58727 0 2.72727 2.86 2.72727 6.36364C2.72727 8.55455 3.84545 10.5018 5.54 11.6482C2.29727 13.0391 0 16.2545 0 20H1.81818C1.81818 15.9727 5.06364 12.7273 9.09091 12.7273C13.1182 12.7273 16.3636 15.9727 16.3636 20H18.1818C18.1818 16.2545 15.8845 13.0382 12.6418 11.6473C13.5069 11.0637 14.2157 10.2768 14.7061 9.35567C15.1964 8.43452 15.4534 7.40718 15.4545 6.36364C15.4545 2.86 12.5945 0 9.09091 0ZM9.09091 1.81818C11.6118 1.81818 13.6364 3.84273 13.6364 6.36364C13.6364 8.88455 11.6118 10.9091 9.09091 10.9091C6.57 10.9091 4.54545 8.88455 4.54545 6.36364C4.54545 3.84273 6.57 1.81818 9.09091 1.81818Z" fill="#666666"/>
</svg>
