<svg width="29" height="27" viewBox="0 0 29 27" fill="none" xmlns="http://www.w3.org/2000/svg">
<path d="M3.88477 10.855V25.0383C3.88477 25.2933 3.98607 25.5379 4.16641 25.7183C4.34674 25.8986 4.59132 25.9999 4.84634 25.9999H10.6158V17.8265C10.6158 17.4439 10.7678 17.0771 11.0383 16.8066C11.3088 16.5361 11.6756 16.3841 12.0582 16.3841H16.8661C17.2486 16.3841 17.6155 16.5361 17.886 16.8066C18.1565 17.0771 18.3084 17.4439 18.3084 17.8265V25.9999H24.0779C24.3329 25.9999 24.5775 25.8986 24.7579 25.7183C24.9382 25.5379 25.0395 25.2933 25.0395 25.0383V10.855" stroke="white" stroke-width="2" stroke-linecap="round" stroke-linejoin="round"/>
<path d="M27.9242 13.4995L15.1166 1.23934C14.8161 0.922024 14.1135 0.918418 13.8076 1.23934L1 13.4995M23.1163 8.87187V1.96053H20.2316V6.10734" stroke="white" stroke-width="2" stroke-linecap="round" stroke-linejoin="round"/>
</svg>
