<svg width="20" height="20" viewBox="0 0 20 20" fill="none" xmlns="http://www.w3.org/2000/svg">
<path d="M15.625 8.75C18.0375 8.75 20 6.7875 20 4.375C20 1.9625 18.0375 0 15.625 0C13.2125 0 11.25 1.9625 11.25 4.375V6.25H8.75V4.375C8.75 1.9625 6.7875 0 4.375 0C1.9625 0 0 1.9625 0 4.375C0 6.7875 1.9625 8.75 4.375 8.75H6.25V11.25H4.375C1.9625 11.25 0 13.2125 0 15.625C0 18.0375 1.9625 20 4.375 20C6.7875 20 8.75 18.0375 8.75 15.625V13.75H11.25V15.625C11.25 18.0375 13.2125 20 15.625 20C18.0375 20 20 18.0375 20 15.625C20 13.2125 18.0375 11.25 15.625 11.25H13.75V8.75H15.625ZM13.75 4.375C13.7677 3.88957 13.973 3.42993 14.3227 3.09277C14.6724 2.75562 15.1392 2.56723 15.625 2.56723C16.1108 2.56723 16.5776 2.75562 16.9273 3.09277C17.277 3.42993 17.4823 3.88957 17.5 4.375C17.5 5.4075 16.6588 6.25 15.625 6.25H13.75V4.375ZM6.25 15.625C6.25 16.6575 5.40875 17.5 4.375 17.5C3.34125 17.5 2.5 16.6575 2.5 15.625C2.5 14.59 3.34125 13.75 4.375 13.75H6.25V15.625ZM6.25 6.25H4.375C4.00381 6.25025 3.64088 6.14039 3.33214 5.93432C3.0234 5.72825 2.78272 5.43523 2.64056 5.09234C2.4984 4.74945 2.46114 4.37209 2.53349 4.00802C2.60585 3.64394 2.78457 3.30951 3.04704 3.04704C3.30951 2.78457 3.64394 2.60585 4.00802 2.53349C4.37209 2.46114 4.74945 2.4984 5.09234 2.64056C5.43523 2.78272 5.72825 3.0234 5.93432 3.33214C6.14039 3.64088 6.25025 4.00381 6.25 4.375V6.25ZM11.25 11.25H8.75V8.75H11.25V11.25ZM15.625 13.75C16.1104 13.7677 16.5701 13.973 16.9072 14.3227C17.2444 14.6724 17.4328 15.1392 17.4328 15.625C17.4328 16.1108 17.2444 16.5776 16.9072 16.9273C16.5701 17.277 16.1104 17.4823 15.625 17.5C14.5913 17.5 13.75 16.6575 13.75 15.625V13.75H15.625Z" fill="#666666"/>
</svg>
