<svg width="25" height="20" viewBox="0 0 25 20" fill="none" xmlns="http://www.w3.org/2000/svg">
<path d="M11.25 16.25H13.75V11L15.75 13L17.5 11.25L12.5 6.25L7.5 11.25L9.25 13L11.25 11V16.25ZM2.5 20C1.8125 20 1.22417 19.7554 0.735 19.2663C0.245 18.7763 0 18.1875 0 17.5V2.5C0 1.8125 0.245 1.22417 0.735 0.735C1.22417 0.245 1.8125 0 2.5 0H10L12.5 2.5H22.5C23.1875 2.5 23.7763 2.745 24.2663 3.235C24.7554 3.72417 25 4.3125 25 5V17.5C25 18.1875 24.7554 18.7763 24.2663 19.2663C23.7763 19.7554 23.1875 20 22.5 20H2.5ZM2.5 2.5V17.5H22.5V5H11.4688L8.96875 2.5H2.5Z" fill="white"/>
</svg>
