<svg width="17" height="15" viewBox="0 0 17 15" fill="none" xmlns="http://www.w3.org/2000/svg">
<path d="M15.75 7.5V13.5C15.75 13.8978 15.592 14.2794 15.3107 14.5607C15.0294 14.842 14.6478 15 14.25 15H2.25C1.85218 15 1.47064 14.842 1.18934 14.5607C0.908035 14.2794 0.75 13.8978 0.75 13.5V7.5C0.551088 7.5 0.360322 7.42098 0.21967 7.28033C0.0790176 7.13968 0 6.94891 0 6.75V4.5C0 4.10218 0.158035 3.72064 0.43934 3.43934C0.720644 3.15804 1.10218 3 1.5 3H3.8775C3.79274 2.75905 3.74962 2.50542 3.75 2.25C3.75 1.65326 3.98705 1.08097 4.40901 0.65901C4.83097 0.237053 5.40326 0 6 0C6.75 0 7.41 0.375 7.8225 0.93V0.9225L8.25 1.5L8.6775 0.9225V0.93C9.09 0.375 9.75 0 10.5 0C11.0967 0 11.669 0.237053 12.091 0.65901C12.5129 1.08097 12.75 1.65326 12.75 2.25C12.7504 2.50542 12.7073 2.75905 12.6225 3H15C15.3978 3 15.7794 3.15804 16.0607 3.43934C16.342 3.72064 16.5 4.10218 16.5 4.5V6.75C16.5 6.94891 16.421 7.13968 16.2803 7.28033C16.1397 7.42098 15.9489 7.5 15.75 7.5ZM2.25 13.5H7.5V7.5H2.25V13.5ZM14.25 13.5V7.5H9V13.5H14.25ZM6 1.5C5.80109 1.5 5.61032 1.57902 5.46967 1.71967C5.32902 1.86032 5.25 2.05109 5.25 2.25C5.25 2.44891 5.32902 2.63968 5.46967 2.78033C5.61032 2.92098 5.80109 3 6 3C6.19891 3 6.38968 2.92098 6.53033 2.78033C6.67098 2.63968 6.75 2.44891 6.75 2.25C6.75 2.05109 6.67098 1.86032 6.53033 1.71967C6.38968 1.57902 6.19891 1.5 6 1.5ZM10.5 1.5C10.3011 1.5 10.1103 1.57902 9.96967 1.71967C9.82902 1.86032 9.75 2.05109 9.75 2.25C9.75 2.44891 9.82902 2.63968 9.96967 2.78033C10.1103 2.92098 10.3011 3 10.5 3C10.6989 3 10.8897 2.92098 11.0303 2.78033C11.171 2.63968 11.25 2.44891 11.25 2.25C11.25 2.05109 11.171 1.86032 11.0303 1.71967C10.8897 1.57902 10.6989 1.5 10.5 1.5ZM1.5 4.5V6H7.5V4.5H1.5ZM9 4.5V6H15V4.5H9Z" fill="#222222"/>
</svg>
