<svg width="15" height="15" viewBox="0 0 20 20" fill="none" xmlns="http://www.w3.org/2000/svg">
<path d="M12.6416 0C10.6907 0.00249626 8.82053 0.778565 7.44109 2.15801C6.06165 3.53745 5.28558 5.40766 5.28308 7.35849C5.28116 8.17062 5.41508 8.97734 5.67931 9.74528L0.169874 15.2642C0.115305 15.3145 0.071976 15.3759 0.0427158 15.4442C0.0134557 15.5124 -0.00107838 15.5861 6.23036e-05 15.6604V19.434C6.23036e-05 19.5841 0.0596982 19.7281 0.165851 19.8342C0.272004 19.9404 0.415978 20 0.5661 20H4.33968C4.48981 20 4.63378 19.9404 4.73993 19.8342C4.84609 19.7281 4.90572 19.5841 4.90572 19.434V17.7358H6.60384C6.75396 17.7358 6.89793 17.6762 7.00409 17.5701C7.11024 17.4639 7.16987 17.3199 7.16987 17.1698V15.4717H8.86799C8.94226 15.4728 9.01593 15.4583 9.08421 15.429C9.15248 15.3998 9.21382 15.3565 9.26421 15.3019L10.2548 14.3208C11.0227 14.585 11.8294 14.7189 12.6416 14.717C14.5932 14.717 16.4648 13.9417 17.8448 12.5617C19.2248 11.1817 20.0001 9.31008 20.0001 7.35849C20.0001 5.4069 19.2248 3.53524 17.8448 2.15525C16.4648 0.775267 14.5932 0 12.6416 0ZM12.6416 13.5849C11.853 13.5856 11.0716 13.4351 10.3397 13.1415C10.2339 13.0979 10.1176 13.0862 10.0053 13.108C9.8929 13.1298 9.78941 13.1841 9.70761 13.2642L8.63214 14.3396H6.60384C6.45371 14.3396 6.30974 14.3993 6.20359 14.5054C6.09743 14.6116 6.0378 14.7555 6.0378 14.9057V16.6038H4.33968C4.18956 16.6038 4.04559 16.6634 3.93944 16.7696C3.83328 16.8757 3.77365 17.0197 3.77365 17.1698V18.8679H1.13214V15.8962L6.73591 10.2925C6.81595 10.2106 6.87023 10.1072 6.89203 9.99481C6.91383 9.88246 6.90219 9.76618 6.85855 9.66038C6.56501 8.92847 6.41449 8.14707 6.41516 7.35849C6.41516 6.12702 6.78033 4.92321 7.4645 3.89928C8.14866 2.87535 9.1211 2.0773 10.2588 1.60603C11.3966 1.13477 12.6485 1.01147 13.8563 1.25171C15.0641 1.49196 16.1735 2.08497 17.0443 2.95575C17.9151 3.82653 18.5081 4.93597 18.7483 6.14378C18.9886 7.35158 18.8653 8.60351 18.394 9.74124C17.9228 10.879 17.1247 11.8514 16.1008 12.5356C15.0769 13.2197 13.873 13.5849 12.6416 13.5849ZM15.4718 5.4717C15.4718 5.65828 15.4164 5.84068 15.3128 5.99582C15.2091 6.15096 15.0618 6.27188 14.8894 6.34328C14.717 6.41469 14.5273 6.43337 14.3443 6.39697C14.1613 6.36057 13.9932 6.27072 13.8613 6.13878C13.7293 6.00684 13.6395 5.83875 13.6031 5.65575C13.5667 5.47274 13.5854 5.28306 13.6568 5.11068C13.7282 4.93829 13.8491 4.79095 14.0042 4.68729C14.1594 4.58363 14.3418 4.5283 14.5284 4.5283C14.7786 4.5283 15.0185 4.6277 15.1954 4.80462C15.3724 4.98154 15.4718 5.22149 15.4718 5.4717Z" fill="#666666"/>
</svg>
