<svg width="20" height="20" viewBox="0 0 20 20" fill="none" xmlns="http://www.w3.org/2000/svg">
<path d="M11.988 1.36198C12.0147 1.26013 12.0614 1.16462 12.1254 1.08106C12.1894 0.997489 12.2695 0.92754 12.3609 0.875308C12.4523 0.823076 12.5532 0.789611 12.6577 0.776875C12.7622 0.764138 12.8682 0.772386 12.9695 0.801134C14.4631 1.20171 15.8249 1.9882 16.9184 3.08163C18.0118 4.17506 18.7983 5.53694 19.1989 7.0305C19.2276 7.13178 19.2359 7.23777 19.2231 7.34227C19.2104 7.44678 19.1769 7.54769 19.1247 7.63909C19.0725 7.7305 19.0025 7.81056 18.9189 7.87459C18.8354 7.93862 18.7399 7.98533 18.638 8.01198C18.5697 8.03177 18.4989 8.04189 18.4277 8.04202C18.2509 8.041 18.0793 7.98151 17.9399 7.87282C17.8004 7.76413 17.7008 7.61234 17.6565 7.44112C17.3234 6.22157 16.6779 5.10997 15.784 4.21601C14.89 3.32205 13.7784 2.67664 12.5589 2.34345C12.4561 2.3179 12.3596 2.27199 12.2749 2.20843C12.1902 2.14487 12.1191 2.06496 12.0659 1.97344C12.0127 1.88191 11.9783 1.78063 11.965 1.6756C11.9516 1.57057 11.9594 1.46392 11.988 1.36198ZM11.7276 5.43811C12.4055 5.62367 13.0234 5.98262 13.5204 6.47961C14.0174 6.97659 14.3763 7.59446 14.5619 8.27237C14.6045 8.44444 14.7037 8.59721 14.8436 8.70618C14.9834 8.81514 15.1558 8.87399 15.3331 8.87327C15.401 8.87393 15.4686 8.86379 15.5334 8.84323C15.6361 8.81767 15.7327 8.77176 15.8174 8.7082C15.902 8.64464 15.9731 8.56473 16.0263 8.47321C16.0796 8.38169 16.1139 8.28041 16.1273 8.17537C16.1406 8.07034 16.1328 7.9637 16.1042 7.86175C15.8513 6.90983 15.3513 6.04166 14.6548 5.3452C13.9583 4.64873 13.0902 4.14871 12.1383 3.89579C12.0337 3.85771 11.9224 3.84182 11.8115 3.84911C11.7005 3.85641 11.5922 3.88673 11.4936 3.93816C11.395 3.98958 11.3081 4.06098 11.2386 4.1478C11.1691 4.23463 11.1184 4.33498 11.0898 4.44246C11.0611 4.54995 11.0552 4.66222 11.0724 4.77212C11.0895 4.88202 11.1294 4.98714 11.1894 5.0808C11.2494 5.17446 11.3282 5.2546 11.4209 5.31611C11.5136 5.37763 11.618 5.41917 11.7276 5.43811ZM19.9901 15.1026C19.8129 16.4551 19.1506 17.6972 18.1264 18.598C17.1022 19.4988 15.7857 19.997 14.4217 20C6.46973 20 0 13.5303 0 5.57832C0.00300688 4.21432 0.501227 2.89783 1.40203 1.87361C2.30283 0.849379 3.54492 0.187115 4.89736 0.00994472C5.24213 -0.0282818 5.59011 0.0443053 5.89084 0.21718C6.19157 0.390054 6.42941 0.654228 6.56988 0.97139L8.5829 5.66845C8.68732 5.91226 8.72919 6.17829 8.70471 6.44238C8.68022 6.70648 8.59016 6.96027 8.44269 7.18073L6.78019 9.72455C7.53301 11.2523 8.77344 12.4857 10.3055 13.2298L12.8193 11.5573C13.0395 11.4089 13.2939 11.319 13.5585 11.2962C13.8231 11.2734 14.0892 11.3185 14.3316 11.4271L19.0286 13.4301C19.3458 13.5706 19.6099 13.8084 19.7828 14.1092C19.9557 14.4099 20.0283 14.7579 19.9901 15.1026ZM18.3977 14.9023L13.7006 12.8993L11.1968 14.5718C10.9665 14.7241 10.7006 14.8143 10.4251 14.8336C10.1496 14.8529 9.87384 14.8007 9.62447 14.682C7.75861 13.7794 6.24933 12.2772 5.33803 10.4156C5.21787 10.1671 5.16396 9.89173 5.18151 9.61625C5.19905 9.34077 5.28747 9.07449 5.43818 8.84323L7.11069 6.2994L5.09766 1.60234C4.13116 1.72658 3.24308 2.19885 2.5997 2.93071C1.95632 3.66258 1.60176 4.60386 1.60241 5.57832C1.60506 8.97739 2.95651 12.2365 5.36002 14.64C7.76352 17.0435 11.0226 18.3949 14.4217 18.3976C15.3961 18.3982 16.3374 18.0437 17.0693 17.4003C17.8012 16.7569 18.2734 15.8688 18.3977 14.9023Z" fill="#666666"/>
</svg>
