<svg width="21" height="20" viewBox="0 0 21 20" fill="none" xmlns="http://www.w3.org/2000/svg">
<path d="M15.3218 10.3064V7.15015H17.3647V10.3064C17.0276 10.2554 16.6905 10.2145 16.3432 10.2145C15.9959 10.2145 15.6588 10.2554 15.3218 10.3064ZM6.63943 8.1716C6.35342 8.1716 6.1287 8.39632 6.1287 8.68233V10.2145H12.2574V8.68233C12.2574 8.39632 12.0327 8.1716 11.7467 8.1716H6.63943ZM3.06435 16.3432V7.15015H1.02145V18.3861H10.572C10.3473 17.7426 10.2145 17.0582 10.2145 16.3432H3.06435ZM18.3861 6.1287H0V0H18.3861V6.1287ZM16.3432 2.0429H2.0429V4.0858H16.3432V2.0429ZM20.429 15.2094L17.477 14.954L16.3432 12.2574L15.189 14.954L12.2574 15.2094L14.4842 17.1297L13.7896 20L16.3432 18.478L18.8458 20L18.1818 17.1297L20.429 15.2094Z" fill="white"/>
</svg>
