<svg width="25" height="25" viewBox="0 0 25 25" fill="none" xmlns="http://www.w3.org/2000/svg">
<path d="M24.9963 12.5021C24.997 10.4231 24.479 8.37681 23.4893 6.5485C22.4996 4.72018 21.0695 3.16763 19.3284 2.03146C17.5873 0.89529 15.5903 0.21139 13.5183 0.0417028C11.4462 -0.127985 9.36454 0.2219 7.46181 1.05967C5.55908 1.89744 3.8954 3.19662 2.62143 4.83956C1.34747 6.4825 0.503469 8.41728 0.165877 10.4687C-0.171714 12.5201 0.00776689 14.6233 0.688064 16.5879C1.36836 18.5524 2.52798 20.3162 4.0619 21.7195L4.21813 21.8637C6.50296 23.8845 9.44791 25 12.4982 25C15.5484 25 18.4934 23.8845 20.7782 21.8637L20.9344 21.7195C22.2156 20.5504 23.2387 19.1267 23.9381 17.5395C24.6376 15.9523 24.998 14.2366 24.9963 12.5021ZM1.9228 12.5021C1.92216 10.7893 2.33756 9.10201 3.13328 7.58525C3.92899 6.0685 5.0812 4.76772 6.49082 3.79476C7.90045 2.8218 9.52531 2.20579 11.2257 1.9997C12.926 1.7936 14.651 2.00359 16.2522 2.61161C17.8535 3.21963 19.2831 4.20748 20.4181 5.49021C21.5532 6.77294 22.3596 8.31216 22.7682 9.97552C23.1768 11.6389 23.1753 13.3766 22.7637 15.0392C22.3522 16.7018 21.543 18.2396 20.4057 19.5203C19.3337 17.9658 17.8236 16.7652 16.0673 16.0713C17.0093 15.3294 17.6966 14.3124 18.0338 13.1618C18.371 12.0111 18.3412 10.784 17.9486 9.65105C17.556 8.5181 16.8201 7.53566 15.8433 6.84033C14.8664 6.14501 13.6972 5.77137 12.4982 5.77137C11.2991 5.77137 10.1299 6.14501 9.15306 6.84033C8.17622 7.53566 7.44034 8.5181 7.04775 9.65105C6.65515 10.784 6.62537 12.0111 6.96252 13.1618C7.29968 14.3124 7.98703 15.3294 8.92898 16.0713C7.17275 16.7652 5.66262 17.9658 4.59067 19.5203C2.86901 17.5884 1.91926 15.0899 1.9228 12.5021ZM8.65257 11.5407C8.65257 10.7802 8.87811 10.0366 9.30067 9.40424C9.72323 8.77184 10.3238 8.27894 11.0265 7.98788C11.7292 7.69681 12.5024 7.62066 13.2484 7.76904C13.9944 7.91742 14.6796 8.28368 15.2174 8.8215C15.7552 9.35931 16.1215 10.0445 16.2699 10.7905C16.4182 11.5365 16.3421 12.3097 16.051 13.0124C15.76 13.7151 15.2671 14.3157 14.6347 14.7382C14.0023 15.1608 13.2587 15.3863 12.4982 15.3863C11.4792 15.3832 10.5029 14.977 9.78242 14.2565C9.06192 13.536 8.65574 12.5597 8.65257 11.5407ZM6.02075 20.8543C6.71646 19.7676 7.67439 18.8734 8.80634 18.254C9.93828 17.6347 11.2079 17.3101 12.4982 17.3101C13.7885 17.3101 15.058 17.6347 16.19 18.254C17.3219 18.8734 18.2799 19.7676 18.9756 20.8543C17.1235 22.2946 14.8443 23.0765 12.4982 23.0765C10.152 23.0765 7.87277 22.2946 6.02075 20.8543Z" fill="white"/>
</svg>
