<svg width="14" height="15" viewBox="0 0 14 15" fill="none" xmlns="http://www.w3.org/2000/svg">
<path d="M10.7417 11.4897L11.925 12.5911C12.675 11.6719 13.1333 10.6101 13.275 9.50872H11.5917C11.475 10.1981 11.1917 10.8716 10.7417 11.4897ZM7.5 13.3914V14.9921C8.65833 14.8574 9.78333 14.4295 10.75 13.7163L9.55 12.5753C8.925 13.0032 8.225 13.2805 7.5 13.3914ZM13.275 7.92393C13.1266 6.79925 12.66 5.73394 11.925 4.84152L10.7417 5.96672C11.1917 6.56101 11.475 7.23455 11.5917 7.92393M9.625 3.60539L5.83333 0V2.43265C2.55 2.82092 0 5.48336 0 8.71632C0 11.9493 2.54167 14.6117 5.83333 15V13.3994C3.46667 13.019 1.66667 11.0697 1.66667 8.71632C1.66667 6.36292 3.46667 4.41363 5.83333 4.03328V7.13154L9.625 3.60539Z" fill="#D1349B"/>
</svg>
