<svg width="27" height="27" viewBox="0 0 27 27" fill="none" xmlns="http://www.w3.org/2000/svg">
<g filter="url(#filter0_d_40_340)">
<path d="M11.8327 10.6527C12.2427 11.0427 12.2427 11.6827 11.8327 12.0727C11.4427 12.4627 10.8027 12.4627 10.4127 12.0727C9.47607 11.1347 8.95 9.86327 8.95 8.53769C8.95 7.21211 9.47607 5.94072 10.4127 5.00269L13.9527 1.46269C14.8907 0.52607 16.1621 0 17.4877 0C18.8133 0 20.0847 0.52607 21.0227 1.46269C21.9593 2.40072 22.4854 3.67211 22.4854 4.99769C22.4854 6.32327 21.9593 7.59466 21.0227 8.53269L19.5327 10.0227C19.5427 9.20269 19.4127 8.38269 19.1327 7.60269L19.6027 7.12269C19.883 6.84538 20.1056 6.51522 20.2575 6.15132C20.4094 5.78742 20.4876 5.39702 20.4876 5.00269C20.4876 4.60837 20.4094 4.21796 20.2575 3.85406C20.1056 3.49016 19.883 3.16 19.6027 2.88269C19.3254 2.60235 18.9952 2.3798 18.6313 2.22791C18.2674 2.07602 17.877 1.99781 17.4827 1.99781C17.0884 1.99781 16.698 2.07602 16.3341 2.22791C15.9702 2.3798 15.64 2.60235 15.3627 2.88269L11.8327 6.41269C11.5524 6.69 11.3298 7.02016 11.1779 7.38406C11.026 7.74796 10.9478 8.13837 10.9478 8.53269C10.9478 8.92702 11.026 9.31742 11.1779 9.68132C11.3298 10.0452 11.5524 10.3754 11.8327 10.6527ZM14.6527 6.41269C15.0427 6.02269 15.6827 6.02269 16.0727 6.41269C17.0093 7.35072 17.5354 8.62211 17.5354 9.94769C17.5354 11.2733 17.0093 12.5447 16.0727 13.4827L12.5327 17.0227C11.5947 17.9593 10.3233 18.4854 8.99769 18.4854C7.67211 18.4854 6.40072 17.9593 5.46269 17.0227C4.52607 16.0847 4 14.8133 4 13.4877C4 12.1621 4.52607 10.8907 5.46269 9.95269L6.95269 8.46269C6.94269 9.28269 7.07269 10.1027 7.35269 10.8927L6.88269 11.3627C6.60235 11.64 6.3798 11.9702 6.22791 12.3341C6.07602 12.698 5.99781 13.0884 5.99781 13.4827C5.99781 13.877 6.07602 14.2674 6.22791 14.6313C6.3798 14.9952 6.60235 15.3254 6.88269 15.6027C7.16 15.883 7.49016 16.1056 7.85406 16.2575C8.21796 16.4094 8.60837 16.4876 9.00269 16.4876C9.39702 16.4876 9.78742 16.4094 10.1513 16.2575C10.5152 16.1056 10.8454 15.883 11.1227 15.6027L14.6527 12.0727C14.933 11.7954 15.1556 11.4652 15.3075 11.1013C15.4594 10.7374 15.5376 10.347 15.5376 9.95269C15.5376 9.55837 15.4594 9.16796 15.3075 8.80406C15.1556 8.44016 14.933 8.11 14.6527 7.83269C14.5556 7.74168 14.4782 7.63172 14.4252 7.5096C14.3723 7.38747 14.345 7.25579 14.345 7.12269C14.345 6.98959 14.3723 6.85791 14.4252 6.73579C14.4782 6.61367 14.5556 6.5037 14.6527 6.41269Z" fill="#666666"/>
</g>
<defs>
<filter id="filter0_d_40_340" x="0" y="0" width="26.4854" height="26.4854" filterUnits="userSpaceOnUse" color-interpolation-filters="sRGB">
<feFlood flood-opacity="0" result="BackgroundImageFix"/>
<feColorMatrix in="SourceAlpha" type="matrix" values="0 0 0 0 0 0 0 0 0 0 0 0 0 0 0 0 0 0 127 0" result="hardAlpha"/>
<feOffset dy="4"/>
<feGaussianBlur stdDeviation="2"/>
<feComposite in2="hardAlpha" operator="out"/>
<feColorMatrix type="matrix" values="0 0 0 0 0 0 0 0 0 0 0 0 0 0 0 0 0 0 0.25 0"/>
<feBlend mode="normal" in2="BackgroundImageFix" result="effect1_dropShadow_40_340"/>
<feBlend mode="normal" in="SourceGraphic" in2="effect1_dropShadow_40_340" result="shape"/>
</filter>
</defs>
</svg>
