<svg width="21" height="20" viewBox="0 0 21 20" fill="none" xmlns="http://www.w3.org/2000/svg">
<path d="M20.23 14.6333C19.8522 13.6 17.5633 13.4556 16.4966 11.0889C16.43 10.9111 16.4411 10.7889 16.6189 10.6778C17.4411 10.1333 18.0189 9.83333 18.3522 9.2C18.5966 8.74444 18.63 8.21111 18.4411 7.72222C18.1855 7.04444 17.5411 6.61111 16.7522 6.61111C16.4744 6.61111 16.2522 6.66667 16.1411 6.68889C16.1522 6.22222 16.1411 5.73333 16.0966 5.24444C15.9522 3.54444 15.3522 2.64444 14.73 1.93333C14.3633 1.52222 12.9077 0 10.1522 0C7.39663 0 5.94108 1.52222 5.57441 1.93333C4.95219 2.64444 4.35219 3.54444 4.20774 5.24444C4.17441 5.73333 4.1633 6.22222 4.1633 6.68889C4.04108 6.65556 3.82997 6.61111 3.55219 6.61111C2.77441 6.61111 2.11885 7.03333 1.8633 7.72222C1.67441 8.2 1.70774 8.74444 1.95219 9.2C2.29663 9.84444 2.8633 10.1333 3.68552 10.6778C3.8633 10.8 3.87441 10.9111 3.80774 11.0889C2.72997 13.4556 0.452188 13.6 0.0744106 14.6333C-0.0922561 15.0778 0.0188549 15.5778 0.429966 16C1.0633 16.6556 2.24108 16.8556 2.47441 17.0111C2.6633 17.1667 2.64108 17.6333 3.17441 18.0111C3.59663 18.3 4.0633 18.3222 4.5633 18.3333C6.01885 18.3889 6.34108 18.6333 6.89663 18.9778C7.59663 19.4111 8.55219 20 10.1522 20C11.7522 20 12.7077 19.4111 13.4077 18.9778C13.9633 18.6333 14.2855 18.3889 15.7411 18.3333C16.2411 18.3111 16.7077 18.3 17.13 18.0111C17.6744 17.6333 17.6522 17.1667 17.83 17.0111C18.0633 16.8556 19.2411 16.6556 19.8744 16C20.2855 15.5778 20.3966 15.0778 20.23 14.6333ZM19.0855 15.2222C18.6744 15.6556 17.6855 15.7778 17.1633 16.1333C16.63 16.6 16.7189 16.9556 16.5077 17.1C16.3633 17.2 16.1077 17.2111 15.7077 17.2333C14.1522 17.2889 13.5855 17.5778 12.9077 18C11.3189 18.9778 10.43 18.8889 10.1522 18.8889C9.87441 18.8889 8.98552 18.9778 7.40774 17.9889C6.72997 17.5667 6.17441 17.2889 4.60774 17.2222C4.20774 17.2111 3.95219 17.1889 3.80774 17.0889C3.59663 16.9444 3.67441 16.5889 3.15219 16.1222C2.61885 15.7667 1.64108 15.6444 1.22997 15.2111C1.1633 15.1444 1.10774 15.0556 1.09663 15.0444C1.17441 14.9333 1.55219 14.7111 1.82997 14.5556C2.69663 14.0444 4.02997 13.2889 4.84108 11.5C5.12997 10.7222 4.87441 10.1 4.30774 9.73333C3.02997 8.92222 3.05219 8.88889 2.92997 8.66667C2.88607 8.58148 2.86044 8.48807 2.8547 8.39241C2.84896 8.29674 2.86324 8.20094 2.89663 8.11111C3.02997 7.75556 3.39663 7.72222 3.54108 7.72222C3.75219 7.72222 3.74108 7.73333 5.28552 8.13333C5.2633 6.57778 5.24108 6.07778 5.30774 5.34444C5.42997 3.88889 5.94108 3.2 6.39663 2.67778C6.70774 2.34444 7.91885 1.08889 10.1522 1.11111C12.3855 1.08889 13.5966 2.34444 13.8966 2.67778C14.3522 3.2 14.8633 3.88889 14.9855 5.34444C15.0522 6.07778 15.03 6.57778 15.0077 8.13333C16.5633 7.73333 16.5411 7.72222 16.7522 7.72222C16.9077 7.72222 17.2633 7.75556 17.3966 8.11111C17.4744 8.3 17.4633 8.5 17.3633 8.66667C17.2411 8.88889 17.2633 8.91111 15.9966 9.74445C15.43 10.1111 15.1744 10.7333 15.4633 11.5111C16.2744 13.3 17.6077 14.0556 18.4744 14.5667C18.7522 14.7333 19.13 14.9444 19.2077 15.0556C19.2077 15.0667 19.1411 15.1556 19.0855 15.2222Z" fill="#EED300"/>
</svg>
