<svg width="20" height="20" viewBox="0 0 20 20" fill="none" xmlns="http://www.w3.org/2000/svg">
<path d="M16.9999 2.91005C16.0832 1.98398 14.9911 1.24972 13.7876 0.750108C12.5841 0.250493 11.2931 -0.0044801 9.98997 5.95695e-05C4.52999 5.95695e-05 0.0799999 4.45005 0.0799999 9.91003C0.0799999 11.66 0.539998 13.36 1.4 14.86L0 20L5.24998 18.62C6.69998 19.41 8.32998 19.83 9.98997 19.83C15.45 19.83 19.8999 15.38 19.8999 9.92003C19.8999 7.27004 18.8699 4.78005 16.9999 2.91005ZM9.98997 18.15C8.50997 18.15 7.05998 17.75 5.78998 17L5.48998 16.82L2.36999 17.64L3.19999 14.6L2.99999 14.29C2.17774 12.977 1.74113 11.4593 1.73999 9.91003C1.73999 5.37004 5.43998 1.67005 9.97997 1.67005C12.18 1.67005 14.25 2.53005 15.8 4.09005C16.5674 4.85401 17.1756 5.7627 17.5893 6.76346C18.003 7.76422 18.214 8.83714 18.2099 9.92003C18.2299 14.46 14.53 18.15 9.98997 18.15ZM14.51 11.99C14.26 11.87 13.04 11.27 12.82 11.18C12.59 11.1 12.43 11.06 12.26 11.3C12.09 11.55 11.62 12.11 11.48 12.27C11.34 12.44 11.19 12.46 10.94 12.33C10.69 12.21 9.88997 11.94 8.94997 11.1C8.20998 10.44 7.71998 9.63003 7.56998 9.38003C7.42998 9.13003 7.54998 9.00003 7.67998 8.87003C7.78998 8.76003 7.92998 8.58003 8.04998 8.44003C8.16998 8.30003 8.21998 8.19003 8.29998 8.03004C8.37998 7.86004 8.33997 7.72004 8.27997 7.60004C8.21998 7.48004 7.71998 6.26004 7.51998 5.76004C7.31998 5.28004 7.10998 5.34004 6.95998 5.33004H6.47998C6.30998 5.33004 6.04998 5.39004 5.81998 5.64004C5.59998 5.89004 4.95999 6.49004 4.95999 7.71004C4.95999 8.93003 5.84998 10.11 5.96998 10.27C6.08998 10.44 7.71998 12.94 10.2 14.01C10.79 14.27 11.25 14.42 11.61 14.53C12.2 14.72 12.74 14.69 13.17 14.63C13.65 14.56 14.64 14.03 14.84 13.45C15.05 12.87 15.05 12.38 14.98 12.27C14.91 12.16 14.76 12.11 14.51 11.99Z" fill="white"/>
</svg>
