<svg version="1.1" id="Layer_1" xmlns="http://www.w3.org/2000/svg" xmlns:xlink="http://www.w3.org/1999/xlink" x="0px" y="0px"
	 width="100%" viewBox="0 0 375 812" enable-background="new 0 0 375 812" xml:space="preserve">
<path fill="#F6F6F6" opacity="1.000000" stroke="none" 
	d="
M375.694214,193.732620 
	C376.000000,343.020905 376.000000,492.041779 376.000000,641.531372 
	C371.637360,645.520447 366.198792,647.460266 361.147003,648.668701 
	C349.200775,651.526306 337.449768,655.110718 325.497009,657.857666 
	C314.512360,660.382202 303.070160,660.617432 292.227753,664.056091 
	C291.118469,664.407959 289.892029,664.453674 288.753265,664.208984 
	C283.232086,663.022766 277.895386,663.938110 272.438385,665.009277 
	C259.511536,667.546692 246.306305,667.348267 233.361938,666.185486 
	C224.363663,665.377197 215.600876,664.029297 206.684097,666.139771 
	C205.878586,666.330444 204.934830,666.416260 204.208008,666.085022 
	C197.025925,662.812256 189.080704,664.198059 181.676636,662.330505 
	C181.029938,662.167358 180.307510,661.828430 179.720276,662.018311 
	C173.912186,663.896729 168.448929,661.523315 163.222015,660.005798 
	C148.057449,655.602844 132.182114,654.231323 117.268837,648.880676 
	C110.232376,646.356140 102.510216,646.402466 95.662582,643.140930 
	C85.425995,638.265137 74.283546,635.833801 63.880836,631.491455 
	C58.101124,629.078796 52.924198,625.277344 47.184959,622.547852 
	C39.250744,618.774536 31.016346,615.631226 23.381145,611.180786 
	C20.482098,609.491028 17.706656,607.684143 15.128149,605.611633 
	C11.064145,602.345154 6.359221,600.425049 1.305194,598.266113 
	C1.000000,492.979095 1.000000,387.958221 1.000000,282.468658 
	C2.361473,278.577026 5.295871,276.610199 7.948285,274.334534 
	C36.039013,250.233841 66.672295,229.981155 100.012482,213.921890 
	C139.343155,194.977158 180.634842,182.557220 224.056290,177.435577 
	C239.933594,175.562836 255.868042,174.111801 271.844055,174.623795 
	C305.431274,175.700165 338.528351,180.058151 370.470551,191.128204 
	C372.192596,191.725021 374.012695,192.132370 375.694214,193.732620 
z"/>
<path fill="#D1349B" opacity="1.000000" stroke="none" 
	d="
M376.000000,193.531342 
	C361.306305,189.803909 346.723541,185.223770 331.659149,182.398865 
	C296.704834,175.844177 261.599213,174.485321 226.267700,178.687515 
	C140.301407,188.912048 66.129173,224.793900 1.317498,281.891541 
	C1.000000,189.880829 1.020277,97.761635 0.921832,5.642575 
	C0.918105,2.155024 1.286223,0.881206 5.353001,0.885878 
	C127.456551,1.026157 249.560303,1.014547 371.663940,0.923591 
	C375.022858,0.921088 376.128204,1.307103 376.117950,5.159930 
	C375.951416,67.793839 376.000000,130.428329 376.000000,193.531342 
z"/>
<path fill="#FDFDFD" opacity="1.000000" stroke="none" 
	d="
M1.000000,598.468628 
	C8.186788,598.061218 13.336297,602.253601 18.532614,606.486206 
	C22.723989,609.900269 27.867887,611.677490 32.649124,614.045776 
	C40.726292,618.046631 49.300495,621.183411 56.968311,625.833496 
	C65.308609,630.891296 74.098640,634.076599 83.484383,636.131042 
	C85.230118,636.513245 86.863441,637.489441 88.494492,638.300415 
	C94.249100,641.161743 100.016624,643.490173 106.588242,644.433960 
	C111.259941,645.104797 116.036674,646.695740 120.711731,648.084595 
	C129.767441,650.775085 138.856674,653.068176 148.244949,654.705383 
	C156.260315,656.103088 164.751343,657.488770 172.262619,661.452026 
	C172.539261,661.598022 172.977448,661.754150 173.201324,661.637878 
	C180.091797,658.059753 186.809372,663.636902 193.660492,662.020874 
	C194.290298,661.872314 195.114105,661.777222 195.635727,662.055237 
	C202.907349,665.930847 210.405350,664.339661 217.858215,662.974976 
	C223.820282,661.883301 229.310135,664.437500 234.957321,665.312805 
	C239.765869,666.058044 244.162445,664.832947 248.729492,664.695984 
	C251.019119,664.627319 253.194855,664.188965 255.501007,664.884399 
	C261.683411,666.748901 267.551056,664.140991 273.491150,663.207458 
	C278.437866,662.430054 283.170441,661.508057 288.239716,662.754028 
	C292.762024,663.865540 296.921967,661.088379 301.261841,660.184082 
	C303.514954,659.714539 305.674255,658.942200 308.038879,658.984802 
	C314.511932,659.101318 320.570282,656.715210 326.864044,655.787903 
	C335.158478,654.565735 342.789368,650.959412 351.142517,649.702087 
	C356.914093,648.833435 363.026855,647.544678 368.138885,644.171509 
	C370.381012,642.692017 373.040375,643.347351 375.613373,642.048340 
	C376.000000,697.468079 375.963745,752.936218 376.084442,808.404053 
	C376.092194,811.969360 375.569702,813.113220 371.600800,813.108887 
	C249.504547,812.975708 127.408104,812.983948 5.311785,813.082886 
	C1.881701,813.085693 0.879494,812.598572 0.887774,808.816345 
	C1.040932,738.856873 1.000000,668.897095 1.000000,598.468628 
z"/>
</svg>